<?xml version="1.0" encoding="utf-8"?>
<!-- Generator: Adobe Illustrator 22.0.1, SVG Export Plug-In . SVG Version: 6.00 Build 0)  -->
<svg version="1.1" id="Logos" xmlns="http://www.w3.org/2000/svg" xmlns:xlink="http://www.w3.org/1999/xlink" x="0px" y="0px"
	 viewBox="0 0 285.1 62.1" style="enable-background:new 0 0 285.1 62.1;" xml:space="preserve">
<style type="text/css">
	.st0{fill:#6ABF4B;}
	.st1{fill:#4D5858;}
</style>
<title>logo</title>
<g id="XMLID_85_">
	<g id="XMLID_87_">
		<polygon id="XMLID_91_" class="st0" points="27.5,44.6 49.8,31.7 27.4,18.8 5.1,31.7 		"/>
		<g id="XMLID_88_">
			<polygon id="XMLID_90_" class="st1" points="27.4,14.1 53.7,29.3 53.7,16.6 27.3,1.3 1.1,16.6 1.1,29.3 			"/>
			<polygon id="XMLID_89_" class="st1" points="27.5,49.3 1.1,34.1 1.1,46.8 27.6,62.1 53.7,46.8 53.7,34.1 			"/>
		</g>
	</g>
	<g>
		<path class="st1" d="M99,23.9l-9.3,23.8h-4.2l-9.3-23.8h3.9l7.5,20l7.5-20H99z"/>
		<path class="st1" d="M119,47.7V44c-0.9,1.1-1.9,2.1-3.1,2.9c-1.2,0.8-2.6,1.2-4.2,1.2c-1.6,0-2.9-0.2-4.1-0.7
			c-1.1-0.4-2.1-1.1-3-2c-2-1.9-2.9-4.5-2.9-7.7V23.9h3.6v13.7c0,2.2,0.6,3.9,1.9,5.2c1.2,1.3,2.8,1.9,4.8,1.9c2,0,3.7-0.7,5.1-2
			c1.4-1.4,2.1-3.1,2.1-5.2V23.9h3.6v23.8H119z"/>
		<path class="st1" d="M137.3,17.4c-1.7,0-2.9,0.4-3.8,1.1c-0.8,0.7-1.3,1.9-1.3,3.6v1.8h5.5v3.1h-5.5v20.6h-3.6V23.9v-2.1
			c0-2.6,0.8-4.5,2.3-5.8c1.6-1.3,3.7-1.9,6.5-1.9h0.3v3.4H137.3z"/>
		<path class="st1" d="M151.5,23.6c3.5,0,6.4,1.2,8.7,3.6c2.1,2.3,3.1,5.2,3.1,8.7c0,3.5-1,6.4-3.1,8.7c-2.2,2.4-5.1,3.6-8.7,3.6
			c-3.5,0-6.4-1.2-8.7-3.6c-2.1-2.3-3.1-5.2-3.1-8.7c0-3.5,1-6.4,3.1-8.7C145.1,24.7,148,23.6,151.5,23.6z M151.5,44.9
			c2.6,0,4.6-0.9,6.1-2.7c1.4-1.7,2.1-3.8,2.1-6.4c0-2.6-0.7-4.7-2.1-6.4c-1.5-1.8-3.5-2.7-6.1-2.7c-2.6,0-4.6,0.9-6.1,2.7
			c-1.4,1.7-2.1,3.8-2.1,6.4c0,2.6,0.7,4.7,2.1,6.4C146.9,44,149,44.9,151.5,44.9z"/>
		<path class="st1" d="M180.1,23.6v3.6h-0.4c-2.6,0-4.7,1-6.3,3.1c-1.5,2-2.3,4.3-2.3,7v10.5h-3.6V23.9h3.6v5.8
			c0.8-2.5,2.4-4.3,4.9-5.5c1-0.5,2.3-0.8,3.8-0.8H180.1z"/>
		<path class="st1" d="M185.2,15.2c0.7,0,1.3,0.2,1.8,0.7c0.5,0.5,0.7,1,0.7,1.7c0,0.7-0.2,1.3-0.7,1.8c-0.5,0.5-1.1,0.7-1.8,0.7
			c-0.7,0-1.3-0.2-1.8-0.7c-0.5-0.5-0.7-1.1-0.7-1.8c0-0.7,0.2-1.2,0.7-1.7C183.9,15.4,184.5,15.2,185.2,15.2z M183.5,23.9h3.6v23.8
			h-3.6V23.9z"/>
		<path class="st1" d="M211.3,43.9c-1.9,2.8-4.7,4.2-8.5,4.2c-3.4,0-6.2-1.2-8.4-3.6c-2.1-2.3-3.1-5.2-3.1-8.7c0-3.5,1-6.4,3.1-8.7
			c2.2-2.4,5-3.6,8.6-3.6c3.6,0,6.3,1.4,8.3,4.2v-3.9h3.6v23.8h-3.6V43.9z M203.2,44.9c2.6,0,4.6-0.9,6.1-2.7
			c1.4-1.7,2.1-3.8,2.1-6.4c0-2.6-0.7-4.7-2.1-6.4c-1.5-1.8-3.5-2.7-6.1-2.7c-2.5,0-4.6,0.9-6.2,2.7c-1.5,1.7-2.2,3.8-2.2,6.4
			c0,2.6,0.7,4.7,2.2,6.4C198.7,44,200.7,44.9,203.2,44.9z"/>
		<path class="st1" d="M221.9,24.4c0.5,0,1,0.1,1.5,0.3c0.5,0.2,0.9,0.5,1.2,0.8c0.3,0.3,0.6,0.7,0.8,1.2c0.2,0.5,0.3,1,0.3,1.5
			c0,0.5-0.1,1-0.3,1.5c-0.2,0.5-0.5,0.9-0.8,1.2s-0.7,0.6-1.2,0.8c-0.5,0.2-1,0.3-1.5,0.3s-1-0.1-1.5-0.3c-0.5-0.2-0.9-0.5-1.2-0.8
			s-0.6-0.7-0.8-1.2c-0.2-0.5-0.3-0.9-0.3-1.5c0-0.5,0.1-1,0.3-1.5c0.2-0.5,0.5-0.9,0.8-1.2c0.3-0.3,0.7-0.6,1.2-0.8
			C220.8,24.5,221.3,24.4,221.9,24.4z M221.9,31.5c0.9,0,1.7-0.3,2.3-1c0.3-0.3,0.5-0.6,0.7-1c0.2-0.4,0.3-0.8,0.3-1.3
			s-0.1-0.9-0.3-1.3c-0.2-0.4-0.4-0.7-0.7-1c-0.6-0.6-1.4-1-2.3-1c-0.9,0-1.7,0.3-2.3,1c-0.6,0.6-1,1.4-1,2.3c0,0.4,0.1,0.9,0.3,1.3
			c0.2,0.4,0.4,0.7,0.7,1C220.2,31.2,221,31.5,221.9,31.5z M223.7,27.4c0,0.3-0.1,0.5-0.2,0.7c-0.1,0.2-0.4,0.3-0.6,0.4
			c0.4,0.1,0.7,0.5,0.7,1c0,0.1,0,0.3,0,0.4v0.5h-0.8v-0.4c0-0.3,0-0.5-0.1-0.7c-0.1-0.3-0.4-0.4-0.8-0.4H221v1.6h-0.8v-4.2h1.8
			c0.6,0,1,0.1,1.3,0.3C223.6,26.7,223.7,27,223.7,27.4z M222,28.1c0.3,0,0.6-0.1,0.7-0.2c0.2-0.1,0.3-0.3,0.3-0.5
			c0-0.2-0.1-0.4-0.2-0.5c-0.1-0.1-0.4-0.2-0.8-0.2H221v1.4H222z"/>
	</g>
</g>
</svg>
